<?xml version="1.0" standalone="no"?>
<!DOCTYPE svg PUBLIC "-//W3C//DTD SVG 20010904//EN"
 "http://www.w3.org/TR/2001/REC-SVG-20010904/DTD/svg10.dtd">
<svg version="1.0" xmlns="http://www.w3.org/2000/svg"
 width="229.000000pt" height="229.000000pt" viewBox="0 0 229.000000 229.000000"
 preserveAspectRatio="xMidYMid meet">
<metadata>
Created by potrace 1.11, written by Peter Selinger 2001-2013
</metadata>
<g transform="translate(0.000000,229.000000) scale(0.100000,-0.100000)"
fill="#000000" stroke="none">
<path d="M0 1150 l0 -1080 1145 0 1145 0 0 1080 0 1080 -1145 0 -1145 0 0
-1080z m1019 834 c11 -14 27 -51 36 -82 17 -60 132 -436 141 -462 4 -12 11 -8
31 15 14 17 100 117 191 223 160 185 168 192 203 192 32 0 49 -10 107 -61 70
-60 88 -91 75 -126 -7 -20 -87 -111 -272 -307 -66 -71 -119 -131 -117 -133 2
-2 124 -26 272 -54 148 -27 279 -55 290 -61 40 -19 46 -52 27 -146 -19 -99
-43 -132 -93 -132 -17 0 -79 11 -138 24 -59 14 -176 41 -261 60 -85 20 -155
35 -156 33 -2 -2 36 -112 141 -406 24 -68 44 -131 44 -141 0 -37 -39 -68 -118
-94 -93 -31 -123 -32 -147 -6 -10 11 -54 139 -99 284 -45 146 -85 268 -88 271
-3 3 -77 -79 -166 -182 -224 -262 -215 -253 -256 -253 -28 0 -48 11 -105 61
-73 64 -87 85 -77 123 3 12 93 116 199 232 107 115 193 211 191 213 -4 5 -145
32 -399 77 -82 15 -160 33 -172 41 -12 8 -25 28 -28 44 -8 34 20 161 42 197
29 47 46 46 316 -17 138 -33 264 -62 279 -66 l28 -7 -19 53 c-11 30 -47 133
-81 229 -34 96 -69 194 -77 218 -27 77 -5 110 99 148 87 31 131 31 157 -2z"/>
</g>
</svg>
